<?xml version="1.0" encoding="utf-8"?>
<!-- Generator: Adobe Illustrator 22.1.0, SVG Export Plug-In . SVG Version: 6.00 Build 0)  -->
<svg version="1.1" id="Header" xmlns="http://www.w3.org/2000/svg" xmlns:xlink="http://www.w3.org/1999/xlink" x="0px" y="0px"
	 viewBox="0 0 549.4 390.8" style="enable-background:new 0 0 549.4 390.8;" xml:space="preserve">
<style type="text/css">
	.st0{fill:#6F7271;}
	.st1{fill:#13B5EA;}
	.st2{fill:#F78E1E;}
	.st3{fill:#E20177;}
	.st4{fill:#C1D82F;}
	.st5{fill:#FFFFFF;}
</style>
<g>
	<g>
		<path class="st0" d="M224.3,361.5c7.2,0,10.9,3.5,10.9,3.5l-1.8,2.1c0,0-3.5-2.9-9.1-2.9c-7,0-12.4,5.1-12.4,12
			c0,7,5.3,12.1,12.4,12.1c6.2,0,9.9-4.2,9.9-4.2v-3.5c0-0.6-0.4-0.9-1-0.9h-1.9v-2.5h3.1c1.9,0,2.7,0.7,2.7,2.5v10.8h-2.8v-2.1
			c0-0.6,0-1.2,0-1.2h-0.1c0,0-3.6,3.8-10.2,3.8c-8.5,0-15.3-6.2-15.3-14.7C208.7,367.9,215.5,361.5,224.3,361.5z"/>
		<path class="st0" d="M244.4,364.5h-2.9v-2.5h13.2c5.2,0,9,3.2,9,8.1c0,4.4-3,7-6,7.6v0.1c0,0,0.6,0.3,1.1,1.1l4.5,8.1
			c0.4,0.8,1.1,0.9,2.2,0.9h0.6v2.5h-1.4c-2.5,0-3.3-0.3-4.3-2.1l-4.5-8.1c-0.8-1.5-1.4-1.7-3.2-1.7h-5.2v12h-3.1V364.5z
			 M254.4,375.9c3.7,0,6-2.2,6-5.8c0-3.5-2.3-5.7-6-5.7h-7v11.4H254.4z"/>
		<path class="st0" d="M285.3,361.5c8.8,0,15.9,6.3,15.9,14.5c0,8.3-7.1,14.9-15.9,14.9c-8.9,0-15.9-6.5-15.9-14.9
			C269.4,367.8,276.4,361.5,285.3,361.5z M285.3,388.2c7,0,12.7-5.3,12.7-12.2c0-6.7-5.7-11.8-12.7-11.8c-7,0-12.7,5.1-12.7,11.8
			C272.6,382.8,278.3,388.2,285.3,388.2z"/>
		<path class="st0" d="M308.6,365.3c0-0.6-0.4-0.9-1-0.9h-1.9v-2.5h3.3c1.9,0,2.7,0.7,2.7,2.5v16.1c0,4.7,3.3,7.7,8.4,7.7
			c5.1,0,8.4-2.9,8.4-7.8v-16c0-1.7,0.8-2.5,2.7-2.5h3.3v2.5h-1.9c-0.6,0-1,0.3-1,0.9v15.3c0,6.1-4.6,10.2-11.5,10.2
			c-6.9,0-11.6-4.1-11.6-10.2V365.3z"/>
		<path class="st0" d="M342.1,364.5h-2.9v-2.5h13.2c5.6,0,9.6,3.3,9.6,8.6c0,5.3-4.1,8.7-9.6,8.7h-7.2v11.2h-3.1V364.5z M352,376.7
			c4.1,0,6.8-2.3,6.8-6.2c0-3.8-2.7-6.1-6.8-6.1h-6.8v12.2H352z"/>
	</g>
	<g>
		<path class="st0" d="M211.1,287.7c0-1.3-0.8-1.9-2.1-1.9H205v-9.5h11.7c4.6,0,6.6,1.9,6.6,6v45.2c0,1.2,0.8,1.9,2.1,1.9h3.8v9.4
			h-11.6c-4.7,0-6.6-1.8-6.6-6V287.7z"/>
		<path class="st0" d="M241.9,305.3c0-1.3-0.8-1.9-2.1-1.9h-3.9v-9.5h11.7c4.6,0,6.5,1.9,6.5,6v27.6c0,1.2,0.8,1.9,2.1,1.9h3.9v9.4
			h-11.7c-4.6,0-6.5-1.8-6.5-6V305.3z M242.5,276.2h10.7v10.3h-10.7V276.2z"/>
		<path class="st0" d="M272.4,302.8h-6.1v-8.9h6.1v-1.3c0-14.7,13.3-16.7,20.2-16.7c2.5,0,4.2,0.3,4.2,0.3v9.5c0,0-1.1-0.2-2.5-0.2
			c-3.5,0-9.5,0.8-9.5,7.3v1.1h10.6v8.9h-10.6v36.1h-12.3V302.8z"/>
		<path class="st0" d="M324.6,292.8c14.2,0,21.9,9.4,21.9,21.3c0,1.3-0.3,4.1-0.3,4.1h-34.1c1,7.9,7.4,12.1,14.8,12.1
			c8,0,13.9-5,13.9-5l5.1,7.8c0,0-7.6,6.8-19.9,6.8c-16.4,0-26.6-10.8-26.6-23.5C299.5,302.5,309.8,292.8,324.6,292.8z M333.9,310.5
			c-0.2-5.4-4.3-9.1-9.3-9.1c-6.3,0-10.8,3.4-12.1,9.1H333.9z"/>
		<path class="st0" d="M358.9,329.6c0,0,5,6.7,15,6.7c6.2,0,11.9-2.8,11.9-8.3c0-11.1-27.9-8.6-27.9-22.8c0-7.6,7-11.5,16.6-11.5
			c4.2,0,13.7,1.7,13.7,7.5v3.4h-4.1v-2.1c0-3.7-6-5.1-9.4-5.1c-7.9,0-12.5,2.6-12.5,7.6c0,11.3,27.9,8.6,27.9,23.1
			c0,7.1-7.1,11.9-16.3,11.9c-12.2,0-17.8-7.6-17.8-7.6L358.9,329.6z"/>
		<path class="st0" d="M402.1,282.4c0-1.3-0.8-1.9-2.1-1.9h-4.2v-3.4h4.8c4,0,5.6,1.5,5.6,5.1v30h5.6c1.9,0,4.5-0.7,5.9-2.3
			l13.7-15.2h5.4l-14.7,16c-2.5,2.6-3.7,3-3.7,3v0.2c0,0,1.4,0.5,2.9,3.1l10.2,16.5c1,1.6,1.8,2,4.7,2h2.3v3.4H436
			c-5.2,0-6.4-0.8-8.8-4.7l-10.3-16.7c-1.1-1.8-3.6-2-5.4-2h-5.2v23.4h-4.1V282.4z"/>
		<path class="st0" d="M449.3,300c0-1.3-0.8-1.9-2.1-1.9H443v-3.4h4.8c4,0,5.6,1.5,5.6,5.1v33.7c0,1.3,0.8,1.9,2.1,1.9h4.2v3.4H455
			c-4,0-5.6-1.5-5.6-5.1V300z M448.8,277.1h4.5v6.4h-4.5V277.1z"/>
		<path class="st0" d="M473.8,282.4c0-1.3-0.8-1.9-2.1-1.9h-4.2v-3.4h4.8c4,0,5.6,1.5,5.6,5.1v51.3c0,1.3,0.8,1.9,2.1,1.9h4.2v3.4
			h-4.8c-4,0-5.6-1.5-5.6-5.1V282.4z"/>
		<path class="st0" d="M498.2,282.4c0-1.3-0.8-1.9-2.1-1.9h-4.2v-3.4h4.8c4,0,5.6,1.5,5.6,5.1v51.3c0,1.3,0.8,1.9,2.1,1.9h4.2v3.4
			h-4.8c-4,0-5.6-1.5-5.6-5.1V282.4z"/>
		<path class="st0" d="M518.2,329.6c0,0,5,6.7,15,6.7c6.2,0,11.9-2.8,11.9-8.3c0-11.1-27.9-8.6-27.9-22.8c0-7.6,7-11.5,16.6-11.5
			c4.2,0,13.7,1.7,13.7,7.5v3.4h-4.1v-2.1c0-3.7-6-5.1-9.4-5.1c-7.9,0-12.5,2.6-12.5,7.6c0,11.3,27.9,8.6,27.9,23.1
			c0,7.1-7.1,11.9-16.3,11.9c-12.2,0-17.8-7.6-17.8-7.6L518.2,329.6z"/>
	</g>
</g>
<g>
	<g>
		<path class="st1" d="M53.3,176.9c-18.1-6.6-34.8-10.6-48.3-13c8.5,22.7,26.3,41.5,53.1,55.9c32.7,17.7,63.2,24.3,86.6,26.3
			C116.4,238.7,76.4,219.5,53.3,176.9z"/>
		<path class="st2" d="M185.5,73.5c-0.3,0.8-0.6,1.5-0.9,2.3c0,0.1,0,0.1-0.1,0.2c-0.3,0.7-0.5,1.5-0.8,2.2c-3.2,8.6-5.9,17-8,25
			c2.5-1.4,4.9-2.6,7.3-3.7l0.7-0.3l0.7,0.3c2.4,1.1,4.8,2.3,7.3,3.7c0.7,0.4,1.4,0.8,2.1,1.2c0.7,0.4,1.3,0.8,2,1.2
			c15.9,9.8,32.8,25.7,40,51.2c1.3,4.6,2.2,9.1,2.8,13.6c0.1,0.9,0.2,1.8,0.3,2.7c0.1,0.9,0.2,1.8,0.2,2.8c0,0.1,0,0.1,0,0.2
			c0.1,0.8,0.1,1.6,0.1,2.5c0,0.9,0.1,1.7,0.1,2.6c0.1,13.8-3.3,26.9-10,38.3c-0.6,1.1-1.3,2.1-2,3.1c-0.2,0.2-0.3,0.5-0.5,0.7
			c-0.6,0.9-1.3,1.8-1.9,2.7c-4.3,5.7-9.4,10.6-14.9,14.6c12.3-6.4,24.5-16.3,32.9-25.6c0.1-0.1,0.2-0.3,0.3-0.4
			c1.1-1.2,2.2-2.5,3.4-3.9c1-1.3,2.1-2.6,3.1-3.9c11-14.3,22-34.9,25.8-62.3c0.1-0.8,0.2-1.6,0.3-2.4c0.1-0.8,0.2-1.6,0.3-2.4
			c0.5-5,0.8-10.1,0.8-15.5c0-42.1-13.8-79.2-41-110.3c-6.1,4-11.8,8.4-17,13c-0.4,0.4-0.8,0.8-1.2,1.1c-0.4,0.4-0.8,0.7-1.2,1.1
			C202.7,41.8,192.3,56.7,185.5,73.5z"/>
		<path class="st3" d="M121.6,216.7c-2.1-2.3-4.2-4.8-6.3-7.6c-0.9-1.2-1.9-2.4-2.8-3.7c-0.8-1.1-1.6-2.3-2.4-3.5
			C100,187,90.9,167,88,141.3c-17.8-14.2-35.2-24.5-49.4-31.7c0.2,3.9,0.5,7.8,1,11.7c2.5,20.8,8.2,38.3,16,52.9
			c0.4,0.7,0.8,1.5,1.2,2.2c0.4,0.8,0.9,1.5,1.3,2.3c28.2,48.5,79.1,64.4,104,67.5C149.8,241.2,134.9,231.5,121.6,216.7z"/>
		<path class="st4" d="M183.7,69.2c7-16,17.2-30.3,30.4-42.6c0,0,0,0,0,0C200.2,12.9,186.8,5.6,183.7,4c-3.2,1.6-16.5,8.9-30.5,22.5
			c0,0,0,0,0,0C166.5,38.9,176.7,53.2,183.7,69.2z"/>
		<path class="st2" d="M91.5,141.9c0.1,0.8,0.2,1.6,0.3,2.4c3.8,27.4,14.8,48,25.8,62.3c1.1,1.4,2.1,2.7,3.1,3.9
			c1.1,1.4,2.3,2.7,3.4,3.9c0.1,0.1,0.2,0.3,0.3,0.4c8.5,9.3,20.6,19.3,33,25.6c-5.5-3.9-10.6-8.9-14.9-14.6
			c-0.7-0.9-1.3-1.8-1.9-2.7c-0.2-0.2-0.3-0.5-0.5-0.7c-0.7-1-1.3-2.1-2-3.1c-6.7-11.4-10.1-24.5-10-38.3c0-0.8,0-1.7,0.1-2.6
			c0-0.8,0.1-1.6,0.1-2.5c0-0.1,0-0.1,0-0.2c0.1-0.9,0.1-1.8,0.2-2.8c0.1-0.9,0.2-1.8,0.3-2.7c0.6-4.5,1.5-9,2.8-13.6
			c7.2-25.5,24-41.4,40-51.2c2.5-9.8,5.7-20.1,9.8-30.8c0.2-0.4,0.3-0.8,0.5-1.2c-6.8-16.9-17.2-31.8-31-44.6
			c-0.4-0.4-0.8-0.8-1.2-1.1c-0.4-0.4-0.8-0.8-1.2-1.1c-5.2-4.6-10.9-8.9-17-13c-27.2,31.1-41,68.2-41,110.3
			c0,5.4,0.3,10.6,0.8,15.5C91.3,140.3,91.4,141.1,91.5,141.9z"/>
		<path class="st1" d="M222.7,246.1c23.4-2,53.8-8.6,86.5-26.2c26.8-14.5,44.7-33.3,53.1-55.9c-13.5,2.4-30.2,6.3-48.3,13
			C291,219.5,250.9,238.7,222.7,246.1z"/>
		<path class="st2" d="M219.7,227c1-1.2,2-2.4,2.9-3.7c0.5-0.7,1-1.3,1.4-2c7.2-10.6,11.1-22.9,11.8-36.1c0-0.9,0.1-1.8,0.1-2.7
			c0-0.7,0-1.4,0-2.1c0-0.2,0-0.4,0-0.5c0-0.7,0-1.5-0.1-2.2c0-0.9-0.1-1.8-0.2-2.7c-0.5-5.7-1.5-11.4-3.1-17.3
			c-6.5-23-21.1-37.9-35.6-47.4c-0.7-0.4-1.3-0.9-2-1.3c-0.7-0.4-1.4-0.9-2.1-1.3c-3.1-1.9-6.2-3.5-9.2-4.9c-2.9,1.4-6,3-9.2,4.9
			c-0.7,0.4-1.4,0.8-2.1,1.3c-0.7,0.4-1.3,0.8-2,1.3c-14.5,9.5-29.2,24.5-35.6,47.4c-1.6,5.8-2.7,11.6-3.1,17.3
			c-0.1,0.9-0.1,1.8-0.2,2.7c0,0.7-0.1,1.5-0.1,2.2c0,0.2,0,0.4,0,0.5c0,0.7,0,1.4,0,2.1c0,0.9,0,1.8,0.1,2.7
			c0.6,13.2,4.6,25.5,11.8,36.1c0.5,0.7,1,1.4,1.4,2c0.9,1.3,1.9,2.5,2.9,3.7c1.3,1.5,2.6,3,4,4.3c6.8,6.6,14.7,11.4,22.7,13.9
			c0.6,0.2,1.1,0.3,1.7,0.5c0.4,0.1,0.8,0.2,1.2,0.3c0.1,0,0.2,0.1,0.3,0.1c0.1,0,0.1,0,0.2,0c0.5,0.1,1.1,0.2,1.6,0.3c0,0,0,0,0,0
			c0.6,0.1,1.2,0.2,1.8,0.3c0,0,0,0,0,0c0.2,0,0.5,0.1,0.7,0.1c0.4,0,0.8,0,1.2,0.1l0.5,0l0.5,0c0.4,0,0.8,0,1.2-0.1
			c0.2,0,0.5-0.1,0.7-0.1c0,0,0,0,0,0c0.6-0.1,1.2-0.2,1.8-0.3c0,0,0,0,0,0c0.5-0.1,1.1-0.2,1.6-0.3c0.1,0,0.1,0,0.2,0
			c0.1,0,0.2-0.1,0.3-0.1c0.4-0.1,0.8-0.2,1.2-0.3c0.6-0.1,1.1-0.3,1.7-0.5c8.1-2.4,16-7.3,22.7-13.9C217,230,218.4,228.6,219.7,227
			z"/>
		<path class="st3" d="M309.2,178.7C309.2,178.7,309.2,178.7,309.2,178.7c0.5-0.7,0.9-1.5,1.3-2.2c0.4-0.7,0.8-1.5,1.2-2.2
			c7.8-14.7,13.5-32.2,16-52.9c0.5-3.8,0.8-7.8,1-11.7c-14.2,7.1-31.6,17.4-49.4,31.7c-2.9,25.7-12,45.8-22,60.6
			c-0.8,1.2-1.6,2.4-2.4,3.5c-0.9,1.3-1.9,2.5-2.8,3.7c-2.1,2.7-4.3,5.3-6.3,7.6c-13.4,14.8-28.2,24.6-40.6,29.6
			C230.1,243.1,281,227.2,309.2,178.7z"/>
	</g>
	<path class="st5" d="M316.3,172.6c7.1-14.3,12.3-31.1,14.7-50.9c0.6-4.8,1-9.8,1.1-14.8l0.1-2.8l-2.5,1.2
		c-14.1,6.9-31.8,17.1-50,31.3c0.3-4.1,0.5-8.3,0.5-12.7c0-43.4-14.4-81.6-42.8-113.6l-0.9-1.1l-1.2,0.8c-6.8,4.4-13,9.1-18.7,14.2
		c-16.3-16-31.5-23.6-32.2-23.9L183.7,0L183,0.3c-0.7,0.3-16,7.8-32.3,23.9c0,0,0,0,0,0c-5.7-5-11.9-9.8-18.7-14.1l-1.2-0.8
		l-0.9,1.1C101.5,42.3,87.1,80.5,87.1,124c0,4.4,0.2,8.6,0.5,12.7c-18.2-14.2-35.9-24.4-50-31.3l-2.5-1.2l0.1,2.8
		c0.2,4.9,0.5,9.9,1.1,14.8c2.4,19.7,7.6,36.6,14.7,50.9c-18.2-6.4-35-10.2-48.3-12.4L0,159.7l0.9,2.6c8.3,24.7,27,45,55.6,60.5
		c11.7,6.3,23.1,11.2,34,15c21,7.3,40.1,10.6,55.9,11.8c0.4,0,0.8,0.1,1.2,0.1c11.7,1.3,23.7,2,35.9,2c12.5,0,24.8-0.5,36.8-1.8
		c0.1,0,0.3,0,0.4,0c1.9-0.2,3.7-0.5,5.5-0.7c13.9-1.4,30-4.4,47.5-10.3c1-0.3,1.9-0.6,2.9-0.9c10.9-3.8,22.3-8.8,34-15.1
		c28.6-15.4,47.3-35.8,55.6-60.5l0.9-2.6l-2.7,0.5C351.3,162.4,334.6,166.2,316.3,172.6z M217.7,27.8c0.4-0.4,0.8-0.8,1.2-1.1
		c5.2-4.6,10.9-8.9,17-13c27.2,31.1,41,68.2,41,110.3c0,5.4-0.3,10.6-0.8,15.5c-0.1,0.8-0.2,1.6-0.3,2.4c-0.1,0.8-0.2,1.6-0.3,2.4
		c-3.8,27.4-14.8,48-25.8,62.3c-1.1,1.4-2.1,2.7-3.1,3.9c-1.1,1.4-2.3,2.7-3.4,3.9c-0.1,0.1-0.2,0.3-0.3,0.4
		c-8.5,9.3-20.6,19.2-32.9,25.6c5.5-3.9,10.6-8.8,14.9-14.6c0.7-0.9,1.3-1.8,1.9-2.7c0.2-0.2,0.3-0.5,0.5-0.7c0.7-1,1.3-2.1,2-3.1
		c6.7-11.4,10.1-24.5,10-38.3c0-0.8,0-1.7-0.1-2.6c0-0.8-0.1-1.6-0.1-2.5c0-0.1,0-0.1,0-0.2c-0.1-0.9-0.1-1.8-0.2-2.8
		c-0.1-0.9-0.2-1.8-0.3-2.7c-0.6-4.5-1.5-9-2.8-13.6c-7.2-25.5-24-41.4-40-51.2c-0.7-0.4-1.3-0.8-2-1.2c-0.7-0.4-1.4-0.8-2.1-1.2
		c-2.5-1.4-4.9-2.6-7.3-3.7l-0.7-0.3l-0.7,0.3c-2.4,1.1-4.8,2.3-7.3,3.7c2.1-8,4.8-16.4,8-25c0.3-0.7,0.5-1.5,0.8-2.2
		c0-0.1,0-0.1,0.1-0.2c0.3-0.8,0.6-1.5,0.9-2.3c6.8-16.9,17.2-31.8,31-44.6C216.9,28.6,217.3,28.2,217.7,27.8z M183.7,4
		c3.2,1.6,16.5,8.9,30.5,22.5c0,0,0,0,0,0c-13.3,12.3-23.4,26.6-30.4,42.6c-7-16-17.2-30.3-30.4-42.6c0,0,0,0,0,0
		C167.1,12.9,180.5,5.6,183.7,4z M131.4,13.7c6.1,4,11.8,8.4,17,13c0.4,0.4,0.8,0.8,1.2,1.1c0.4,0.4,0.8,0.7,1.2,1.1
		c13.8,12.8,24.2,27.7,31,44.6c-0.2,0.4-0.3,0.8-0.5,1.2c-4.1,10.7-7.3,21-9.8,30.8c-15.9,9.8-32.8,25.7-40,51.2
		c-1.3,4.6-2.2,9.1-2.8,13.6c-0.1,0.9-0.2,1.8-0.3,2.7c-0.1,0.9-0.2,1.8-0.2,2.8c0,0.1,0,0.1,0,0.2c-0.1,0.8-0.1,1.6-0.1,2.5
		c0,0.9-0.1,1.7-0.1,2.6c-0.1,13.8,3.3,26.9,10,38.3c0.6,1.1,1.3,2.1,2,3.1c0.2,0.2,0.3,0.5,0.5,0.7c0.6,0.9,1.2,1.8,1.9,2.7
		c4.3,5.7,9.4,10.7,14.9,14.6c-12.3-6.4-24.5-16.3-33-25.6c-0.1-0.1-0.2-0.3-0.3-0.4c-1.1-1.2-2.2-2.5-3.4-3.9
		c-1-1.3-2.1-2.6-3.1-3.9c-11-14.3-22-34.9-25.8-62.3c-0.1-0.8-0.2-1.6-0.3-2.4c-0.1-0.8-0.2-1.6-0.3-2.4c-0.5-5-0.8-10.1-0.8-15.5
		C90.4,81.9,104.2,44.8,131.4,13.7z M58.1,219.9C31.3,205.4,13.4,186.6,5,164c13.5,2.4,30.2,6.4,48.3,13
		c23.1,42.6,63.2,61.8,91.4,69.2C121.3,244.2,90.9,237.6,58.1,219.9z M58.1,178.8c-0.4-0.8-0.9-1.5-1.3-2.3
		c-0.4-0.7-0.8-1.5-1.2-2.2c-7.8-14.7-13.5-32.2-16-52.9c-0.5-3.9-0.8-7.8-1-11.7c14.2,7.1,31.6,17.4,49.4,31.7
		c2.9,25.7,12,45.8,22,60.6c0.8,1.2,1.6,2.4,2.4,3.5c0.9,1.3,1.9,2.5,2.8,3.7c2.1,2.7,4.3,5.3,6.3,7.6
		c13.4,14.8,28.2,24.5,40.6,29.6C137.2,243.1,86.3,227.2,58.1,178.8z M191.2,245.7c-0.4,0.1-0.8,0.2-1.2,0.3c-0.1,0-0.2,0.1-0.3,0.1
		c-0.1,0-0.1,0-0.2,0c-0.5,0.1-1.1,0.2-1.6,0.3c0,0,0,0,0,0c-0.6,0.1-1.2,0.2-1.8,0.3c0,0,0,0,0,0c-0.2,0-0.5,0.1-0.7,0.1
		c-0.4,0-0.8,0-1.2,0.1l-0.5,0l-0.5,0c-0.4,0-0.8,0-1.2-0.1c-0.2,0-0.5-0.1-0.7-0.1c0,0,0,0,0,0c-0.6-0.1-1.2-0.2-1.8-0.3
		c0,0,0,0,0,0c-0.5-0.1-1.1-0.2-1.6-0.3c-0.1,0-0.1,0-0.2,0c-0.1,0-0.2-0.1-0.3-0.1c-0.4-0.1-0.8-0.2-1.2-0.3
		c-0.6-0.1-1.1-0.3-1.7-0.5c-8.1-2.4-16-7.3-22.7-13.9c-1.4-1.4-2.8-2.8-4-4.3c-1-1.2-2-2.4-2.9-3.7c-0.5-0.7-1-1.3-1.4-2
		c-7.2-10.6-11.1-22.9-11.8-36.1c0-0.9-0.1-1.8-0.1-2.7c0-0.7,0-1.4,0-2.1c0-0.2,0-0.4,0-0.5c0-0.7,0-1.5,0.1-2.2
		c0-0.9,0.1-1.8,0.2-2.7c0.5-5.7,1.5-11.4,3.1-17.3c6.5-23,21.2-37.9,35.6-47.4c0.7-0.4,1.3-0.9,2-1.3c0.7-0.4,1.4-0.9,2.1-1.3
		c3.1-1.9,6.2-3.5,9.2-4.9c2.9,1.4,6,3,9.2,4.9c0.7,0.4,1.4,0.8,2.1,1.3c0.7,0.4,1.3,0.8,2,1.3c14.5,9.5,29.1,24.5,35.6,47.4
		c1.6,5.8,2.7,11.6,3.1,17.3c0.1,0.9,0.1,1.8,0.2,2.7c0,0.7,0.1,1.5,0.1,2.2c0,0.2,0,0.4,0,0.5c0,0.7,0,1.4,0,2.1
		c0,0.9,0,1.8-0.1,2.7c-0.6,13.2-4.6,25.5-11.8,36.1c-0.5,0.7-1,1.4-1.4,2c-0.9,1.3-1.9,2.5-2.9,3.7c-1.3,1.5-2.6,3-4,4.3
		c-6.8,6.6-14.7,11.4-22.7,13.9C192.3,245.4,191.8,245.6,191.2,245.7z M205.2,246.3c12.4-5,27.2-14.8,40.6-29.6
		c2.1-2.3,4.2-4.8,6.3-7.6c0.9-1.2,1.9-2.4,2.8-3.7c0.8-1.1,1.6-2.3,2.4-3.5c10-14.8,19.1-34.9,22-60.6
		c17.8-14.2,35.2-24.5,49.4-31.7c-0.2,3.9-0.5,7.9-1,11.7c-2.5,20.8-8.2,38.3-16,52.9c-0.4,0.7-0.8,1.5-1.2,2.2
		c-0.4,0.7-0.8,1.5-1.3,2.2c0,0,0,0,0,0C281,227.2,230.1,243.1,205.2,246.3z M309.2,219.9c-32.7,17.7-63.2,24.3-86.5,26.2
		c28.2-7.4,68.3-26.6,91.4-69.2c18.1-6.6,34.8-10.6,48.3-13C353.9,186.6,336,205.4,309.2,219.9z"/>
</g>
<rect x="180.3" y="220.3" class="st2" width="7" height="170"/>
</svg>
